# 3ds Max Wavefront OBJ Exporter v0.97b - (c)2007 guruware
# 创建的文件:11.03.2016 16:48:56

mtllib box.mtl

#
# object Box001
#

v  -71.6667 83.3333 75.0000
v  -71.6667 66.6666 75.0000
v  -38.3333 66.6667 75.0000
v  -38.3333 83.3333 75.0000
v  -71.6667 50.0000 75.0000
v  -38.3333 50.0000 75.0000
v  -71.6667 33.3333 75.0000
v  -38.3333 33.3333 75.0000
v  -71.6667 16.6667 75.0000
v  -38.3333 16.6667 75.0000
v  -5.0000 66.6667 75.0000
v  -5.0000 83.3333 75.0000
v  -5.0000 50.0000 75.0000
v  -5.0000 33.3333 75.0000
v  -5.0000 16.6667 75.0000
v  28.3333 66.6667 75.0000
v  28.3333 83.3333 75.0000
v  28.3333 50.0000 75.0000
v  28.3333 33.3333 75.0000
v  28.3333 16.6667 75.0000
v  61.6667 66.6667 75.0000
v  61.6667 83.3333 75.0000
v  61.6667 50.0000 75.0000
v  61.6667 33.3333 75.0000
v  61.6667 16.6667 75.0000
v  -105.0000 100.0000 75.0000
v  -105.0000 83.3333 75.0000
v  -71.6667 100.0000 75.0000
v  -71.6667 0.0000 75.0000
v  -105.0000 16.6667 75.0000
v  -105.0000 0.0000 75.0000
v  95.0000 0.0000 75.0000
v  95.0000 16.6667 75.0000
v  61.6667 0.0000 75.0000
v  61.6667 100.0000 75.0000
v  95.0000 83.3333 75.0000
v  95.0000 100.0000 75.0000
v  -105.0000 66.6667 75.0000
v  -38.3333 0.0000 75.0000
v  95.0000 33.3333 75.0000
v  28.3333 100.0000 75.0000
v  -105.0000 50.0000 75.0000
v  -5.0000 0.0000 75.0000
v  95.0000 50.0000 75.0000
v  -5.0000 100.0000 75.0000
v  -105.0000 33.3333 75.0000
v  28.3333 0.0000 75.0000
v  95.0000 66.6667 75.0000
v  -38.3333 100.0000 75.0000
v  95.0000 83.3333 41.6667
v  95.0000 66.6666 41.6667
v  95.0000 66.6667 8.3333
v  95.0000 83.3333 8.3333
v  95.0000 50.0000 41.6667
v  95.0000 50.0000 8.3333
v  95.0000 33.3333 41.6667
v  95.0000 33.3333 8.3333
v  95.0000 16.6667 41.6667
v  95.0000 16.6667 8.3333
v  95.0000 66.6667 -25.0000
v  95.0000 83.3333 -25.0000
v  95.0000 50.0000 -25.0000
v  95.0000 33.3333 -25.0000
v  95.0000 16.6667 -25.0000
v  95.0000 66.6667 -58.3333
v  95.0000 83.3333 -58.3333
v  95.0000 50.0000 -58.3333
v  95.0000 33.3333 -58.3333
v  95.0000 16.6667 -58.3333
v  95.0000 66.6667 -91.6667
v  95.0000 83.3333 -91.6667
v  95.0000 50.0000 -91.6667
v  95.0000 33.3333 -91.6667
v  95.0000 16.6667 -91.6667
v  95.0000 100.0000 41.6667
v  95.0000 0.0000 41.6667
v  95.0000 0.0000 -125.0000
v  95.0000 16.6667 -125.0000
v  95.0000 0.0000 -91.6667
v  95.0000 100.0000 -91.6667
v  95.0000 83.3333 -125.0000
v  95.0000 100.0000 -125.0000
v  95.0000 0.0000 8.3333
v  95.0000 33.3333 -125.0000
v  95.0000 100.0000 -58.3333
v  95.0000 0.0000 -25.0000
v  95.0000 50.0000 -125.0000
v  95.0000 100.0000 -25.0000
v  95.0000 0.0000 -58.3333
v  95.0000 66.6667 -125.0000
v  95.0000 100.0000 8.3333
v  61.6667 83.3333 -125.0000
v  61.6667 66.6666 -125.0000
v  28.3333 66.6667 -125.0000
v  28.3333 83.3333 -125.0000
v  61.6667 50.0000 -125.0000
v  28.3333 50.0000 -125.0000
v  61.6667 33.3333 -125.0000
v  28.3333 33.3333 -125.0000
v  61.6667 16.6667 -125.0000
v  28.3333 16.6667 -125.0000
v  -5.0000 66.6667 -125.0000
v  -5.0000 83.3333 -125.0000
v  -5.0000 50.0000 -125.0000
v  -5.0000 33.3333 -125.0000
v  -5.0000 16.6667 -125.0000
v  -38.3333 66.6667 -125.0000
v  -38.3333 83.3333 -125.0000
v  -38.3333 50.0000 -125.0000
v  -38.3333 33.3333 -125.0000
v  -38.3333 16.6667 -125.0000
v  -71.6667 66.6667 -125.0000
v  -71.6667 83.3333 -125.0000
v  -71.6667 50.0000 -125.0000
v  -71.6667 33.3333 -125.0000
v  -71.6667 16.6667 -125.0000
v  61.6667 100.0000 -125.0000
v  61.6667 0.0000 -125.0000
v  -105.0000 0.0000 -125.0000
v  -105.0000 16.6667 -125.0000
v  -71.6667 0.0000 -125.0000
v  -71.6667 100.0000 -125.0000
v  -105.0000 83.3333 -125.0000
v  -105.0000 100.0000 -125.0000
v  28.3333 0.0000 -125.0000
v  -105.0000 33.3333 -125.0000
v  -38.3333 100.0000 -125.0000
v  -5.0000 0.0000 -125.0000
v  -105.0000 50.0000 -125.0000
v  -5.0000 100.0000 -125.0000
v  -38.3333 0.0000 -125.0000
v  -105.0000 66.6667 -125.0000
v  28.3333 100.0000 -125.0000
v  -105.0000 83.3333 -91.6667
v  -105.0000 66.6666 -91.6667
v  -105.0000 66.6667 -58.3333
v  -105.0000 83.3333 -58.3333
v  -105.0000 50.0000 -91.6667
v  -105.0000 50.0000 -58.3333
v  -105.0000 33.3333 -91.6667
v  -105.0000 33.3333 -58.3333
v  -105.0000 16.6667 -91.6667
v  -105.0000 16.6667 -58.3333
v  -105.0000 66.6667 -25.0000
v  -105.0000 83.3333 -25.0000
v  -105.0000 50.0000 -25.0000
v  -105.0000 33.3333 -25.0000
v  -105.0000 16.6667 -25.0000
v  -105.0000 66.6667 8.3333
v  -105.0000 83.3333 8.3333
v  -105.0000 50.0000 8.3333
v  -105.0000 33.3333 8.3333
v  -105.0000 16.6667 8.3333
v  -105.0000 66.6667 41.6667
v  -105.0000 83.3333 41.6667
v  -105.0000 50.0000 41.6667
v  -105.0000 33.3333 41.6667
v  -105.0000 16.6667 41.6667
v  -105.0000 100.0000 -91.6667
v  -105.0000 0.0000 -91.6667
v  -105.0000 0.0000 41.6667
v  -105.0000 100.0000 41.6667
v  -105.0000 0.0000 -58.3333
v  -105.0000 100.0000 8.3333
v  -105.0000 0.0000 -25.0000
v  -105.0000 100.0000 -25.0000
v  -105.0000 0.0000 8.3333
v  -105.0000 100.0000 -58.3333
v  -71.6667 0.0000 41.6667
v  -71.6667 0.0000 8.3333
v  -38.3333 0.0000 8.3333
v  -38.3333 0.0000 41.6667
v  -71.6667 0.0000 -25.0000
v  -38.3333 0.0000 -25.0000
v  -71.6667 0.0000 -58.3333
v  -38.3333 0.0000 -58.3333
v  -71.6667 0.0000 -91.6667
v  -38.3333 0.0000 -91.6667
v  -5.0000 0.0000 8.3333
v  -5.0000 0.0000 41.6667
v  -5.0000 0.0000 -25.0000
v  -5.0000 0.0000 -58.3333
v  -5.0000 0.0000 -91.6667
v  28.3333 0.0000 8.3333
v  28.3333 0.0000 41.6667
v  28.3333 0.0000 -25.0000
v  28.3333 0.0000 -58.3333
v  28.3333 0.0000 -91.6667
v  61.6667 0.0000 8.3333
v  61.6667 0.0000 41.6667
v  61.6667 0.0000 -25.0000
v  61.6667 0.0000 -58.3333
v  61.6667 0.0000 -91.6667
# 193 vertices

vn 0.0000 -0.0000 1.0000
vn 0.0000 0.0000 1.0000
vn -0.0000 0.0000 1.0000
vn -0.0000 -0.0000 1.0000
vn 1.0000 -0.0000 -0.0000
vn 1.0000 0.0000 -0.0000
vn 1.0000 0.0000 0.0000
vn 1.0000 -0.0000 0.0000
vn -0.0000 -0.0000 -1.0000
vn -0.0000 0.0000 -1.0000
vn 0.0000 0.0000 -1.0000
vn 0.0000 -0.0000 -1.0000
vn -1.0000 -0.0000 0.0000
vn -1.0000 0.0000 0.0000
vn -1.0000 0.0000 -0.0000
vn -1.0000 -0.0000 -0.0000
vn 0.0000 -1.0000 -0.0000
# 17 vertex normals

vt 0.1667 0.8333 0.0000
vt 0.1667 0.6667 0.0000
vt 0.3333 0.6667 0.0000
vt 0.3333 0.8333 0.0000
vt 0.1667 0.5000 0.0000
vt 0.3333 0.5000 0.0000
vt 0.1667 0.3333 0.0000
vt 0.3333 0.3333 0.0000
vt 0.1667 0.1667 0.0000
vt 0.3333 0.1667 0.0000
vt 0.5000 0.6667 0.0000
vt 0.5000 0.8333 0.0000
vt 0.5000 0.5000 0.0000
vt 0.5000 0.3333 0.0000
vt 0.5000 0.1667 0.0000
vt 0.6667 0.6667 0.0000
vt 0.6667 0.8333 0.0000
vt 0.6667 0.5000 0.0000
vt 0.6667 0.3333 0.0000
vt 0.6667 0.1667 0.0000
vt 0.8333 0.6667 0.0000
vt 0.8333 0.8333 0.0000
vt 0.8333 0.5000 0.0000
vt 0.8333 0.3333 0.0000
vt 0.8333 0.1667 0.0000
vt 0.0000 1.0000 0.0000
vt 0.0000 0.8333 0.0000
vt 0.1667 1.0000 0.0000
vt 0.1667 0.0000 0.0000
vt 0.0000 0.1667 0.0000
vt 0.0000 0.0000 0.0000
vt 1.0000 0.0000 0.0000
vt 1.0000 0.1667 0.0000
vt 0.8333 0.0000 0.0000
vt 0.8333 1.0000 0.0000
vt 1.0000 0.8333 0.0000
vt 1.0000 1.0000 0.0000
vt 0.0000 0.6667 0.0000
vt 0.3333 0.0000 0.0000
vt 1.0000 0.3333 0.0000
vt 0.6667 1.0000 0.0000
vt 0.0000 0.5000 0.0000
vt 0.5000 0.0000 0.0000
vt 1.0000 0.5000 0.0000
vt 0.5000 1.0000 0.0000
vt 0.0000 0.3333 0.0000
vt 0.6667 0.0000 0.0000
vt 1.0000 0.6667 0.0000
vt 0.3333 1.0000 0.0000
# 49 texture coords

g Box001
usemtl wire_177088027
s 1
f 1/1/1 2/2/2 3/3/3 
f 3/3/3 4/4/4 1/1/1 
f 2/2/2 5/5/2 6/6/3 
f 6/6/3 3/3/3 2/2/2 
f 5/5/2 7/7/2 8/8/3 
f 8/8/3 6/6/3 5/5/2 
f 7/7/2 9/9/1 10/10/4 
f 10/10/4 8/8/3 7/7/2 
f 4/4/4 3/3/3 11/11/3 
f 11/11/3 12/12/4 4/4/4 
f 3/3/3 6/6/3 13/13/3 
f 13/13/3 11/11/3 3/3/3 
f 6/6/3 8/8/3 14/14/3 
f 14/14/3 13/13/3 6/6/3 
f 8/8/3 10/10/4 15/15/3 
f 15/15/3 14/14/3 8/8/3 
f 12/12/4 11/11/3 16/16/2 
f 16/16/2 17/17/2 12/12/4 
f 11/11/3 13/13/3 18/18/2 
f 18/18/2 16/16/2 11/11/3 
f 13/13/3 14/14/3 19/19/2 
f 19/19/2 18/18/2 13/13/3 
f 14/14/3 15/15/3 20/20/2 
f 20/20/2 19/19/2 14/14/3 
f 17/17/2 16/16/2 21/21/3 
f 21/21/3 22/22/3 17/17/2 
f 16/16/2 18/18/2 23/23/2 
f 23/23/2 21/21/3 16/16/2 
f 18/18/2 19/19/2 24/24/2 
f 24/24/2 23/23/2 18/18/2 
f 19/19/2 20/20/2 25/25/2 
f 25/25/2 24/24/2 19/19/2 
f 26/26/1 27/27/1 1/1/1 
f 1/1/1 28/28/1 26/26/1 
f 29/29/2 9/9/1 30/30/2 
f 30/30/2 31/31/2 29/29/2 
f 32/32/2 33/33/2 25/25/2 
f 25/25/2 34/34/2 32/32/2 
f 35/35/3 22/22/3 36/36/3 
f 36/36/3 37/37/3 35/35/3 
f 27/27/1 38/38/2 2/2/2 
f 2/2/2 1/1/1 27/27/1 
f 39/39/4 10/10/4 9/9/1 
f 9/9/1 29/29/2 39/39/4 
f 33/33/2 40/40/1 24/24/2 
f 24/24/2 25/25/2 33/33/2 
f 41/41/2 17/17/2 22/22/3 
f 22/22/3 35/35/3 41/41/2 
f 38/38/2 42/42/2 5/5/2 
f 5/5/2 2/2/2 38/38/2 
f 43/43/4 15/15/3 10/10/4 
f 10/10/4 39/39/4 43/43/4 
f 40/40/1 44/44/4 23/23/2 
f 23/23/2 24/24/2 40/40/1 
f 45/45/1 12/12/4 17/17/2 
f 17/17/2 41/41/2 45/45/1 
f 42/42/2 46/46/2 7/7/2 
f 7/7/2 5/5/2 42/42/2 
f 47/47/2 20/20/2 15/15/3 
f 15/15/3 43/43/4 47/47/2 
f 44/44/4 48/48/4 21/21/3 
f 21/21/3 23/23/2 44/44/4 
f 49/49/4 4/4/4 12/12/4 
f 12/12/4 45/45/1 49/49/4 
f 46/46/2 30/30/2 9/9/1 
f 9/9/1 7/7/2 46/46/2 
f 34/34/2 25/25/2 20/20/2 
f 20/20/2 47/47/2 34/34/2 
f 48/48/4 36/36/3 22/22/3 
f 22/22/3 21/21/3 48/48/4 
f 28/28/1 1/1/1 4/4/4 
f 4/4/4 49/49/4 28/28/1 
s 2
f 50/1/5 51/2/6 52/3/7 
f 52/3/7 53/4/8 50/1/5 
f 51/2/6 54/5/6 55/6/7 
f 55/6/7 52/3/7 51/2/6 
f 54/5/6 56/7/8 57/8/7 
f 57/8/7 55/6/7 54/5/6 
f 56/7/8 58/9/6 59/10/8 
f 59/10/8 57/8/7 56/7/8 
f 53/4/8 52/3/7 60/11/7 
f 60/11/7 61/12/8 53/4/8 
f 52/3/7 55/6/7 62/13/7 
f 62/13/7 60/11/7 52/3/7 
f 55/6/7 57/8/7 63/14/7 
f 63/14/7 62/13/7 55/6/7 
f 57/8/7 59/10/8 64/15/7 
f 64/15/7 63/14/7 57/8/7 
f 61/12/8 60/11/7 65/16/6 
f 65/16/6 66/17/6 61/12/8 
f 60/11/7 62/13/7 67/18/6 
f 67/18/6 65/16/6 60/11/7 
f 62/13/7 63/14/7 68/19/6 
f 68/19/6 67/18/6 62/13/7 
f 63/14/7 64/15/7 69/20/6 
f 69/20/6 68/19/6 63/14/7 
f 66/17/6 65/16/6 70/21/7 
f 70/21/7 71/22/7 66/17/6 
f 65/16/6 67/18/6 72/23/6 
f 72/23/6 70/21/7 65/16/6 
f 67/18/6 68/19/6 73/24/6 
f 73/24/6 72/23/6 67/18/6 
f 68/19/6 69/20/6 74/25/6 
f 74/25/6 73/24/6 68/19/6 
f 37/26/5 36/27/6 50/1/5 
f 50/1/5 75/28/5 37/26/5 
f 76/29/6 58/9/6 33/30/6 
f 33/30/6 32/31/6 76/29/6 
f 77/32/6 78/33/6 74/25/6 
f 74/25/6 79/34/6 77/32/6 
f 80/35/7 71/22/7 81/36/7 
f 81/36/7 82/37/7 80/35/7 
f 36/27/6 48/38/6 51/2/6 
f 51/2/6 50/1/5 36/27/6 
f 83/39/8 59/10/8 58/9/6 
f 58/9/6 76/29/6 83/39/8 
f 78/33/6 84/40/5 73/24/6 
f 73/24/6 74/25/6 78/33/6 
f 85/41/6 66/17/6 71/22/7 
f 71/22/7 80/35/7 85/41/6 
f 48/38/6 44/42/5 54/5/6 
f 54/5/6 51/2/6 48/38/6 
f 86/43/8 64/15/7 59/10/8 
f 59/10/8 83/39/8 86/43/8 
f 84/40/5 87/44/8 72/23/6 
f 72/23/6 73/24/6 84/40/5 
f 88/45/5 61/12/8 66/17/6 
f 66/17/6 85/41/6 88/45/5 
f 44/42/5 40/46/8 56/7/8 
f 56/7/8 54/5/6 44/42/5 
f 89/47/6 69/20/6 64/15/7 
f 64/15/7 86/43/8 89/47/6 
f 87/44/8 90/48/8 70/21/7 
f 70/21/7 72/23/6 87/44/8 
f 91/49/8 53/4/8 61/12/8 
f 61/12/8 88/45/5 91/49/8 
f 40/46/8 33/30/6 58/9/6 
f 58/9/6 56/7/8 40/46/8 
f 79/34/6 74/25/6 69/20/6 
f 69/20/6 89/47/6 79/34/6 
f 90/48/8 81/36/7 71/22/7 
f 71/22/7 70/21/7 90/48/8 
f 75/28/5 50/1/5 53/4/8 
f 53/4/8 91/49/8 75/28/5 
s 4
f 92/1/9 93/2/10 94/3/11 
f 94/3/11 95/4/12 92/1/9 
f 93/2/10 96/5/10 97/6/11 
f 97/6/11 94/3/11 93/2/10 
f 96/5/10 98/7/12 99/8/11 
f 99/8/11 97/6/11 96/5/10 
f 98/7/12 100/9/10 101/10/12 
f 101/10/12 99/8/11 98/7/12 
f 95/4/12 94/3/11 102/11/11 
f 102/11/11 103/12/12 95/4/12 
f 94/3/11 97/6/11 104/13/11 
f 104/13/11 102/11/11 94/3/11 
f 97/6/11 99/8/11 105/14/11 
f 105/14/11 104/13/11 97/6/11 
f 99/8/11 101/10/12 106/15/11 
f 106/15/11 105/14/11 99/8/11 
f 103/12/12 102/11/11 107/16/11 
f 107/16/11 108/17/10 103/12/12 
f 102/11/11 104/13/11 109/18/11 
f 109/18/11 107/16/11 102/11/11 
f 104/13/11 105/14/11 110/19/11 
f 110/19/11 109/18/11 104/13/11 
f 105/14/11 106/15/11 111/20/11 
f 111/20/11 110/19/11 105/14/11 
f 108/17/10 107/16/11 112/21/11 
f 112/21/11 113/22/11 108/17/10 
f 107/16/11 109/18/11 114/23/10 
f 114/23/10 112/21/11 107/16/11 
f 109/18/11 110/19/11 115/24/10 
f 115/24/10 114/23/10 109/18/11 
f 110/19/11 111/20/11 116/25/10 
f 116/25/10 115/24/10 110/19/11 
f 82/26/9 81/27/10 92/1/9 
f 92/1/9 117/28/12 82/26/9 
f 118/29/10 100/9/10 78/30/10 
f 78/30/10 77/31/10 118/29/10 
f 119/32/10 120/33/10 116/25/10 
f 116/25/10 121/34/11 119/32/10 
f 122/35/11 113/22/11 123/36/11 
f 123/36/11 124/37/11 122/35/11 
f 81/27/10 90/38/10 93/2/10 
f 93/2/10 92/1/9 81/27/10 
f 125/39/12 101/10/12 100/9/10 
f 100/9/10 118/29/10 125/39/12 
f 120/33/10 126/40/9 115/24/10 
f 115/24/10 116/25/10 120/33/10 
f 127/41/10 108/17/10 113/22/11 
f 113/22/11 122/35/11 127/41/10 
f 90/38/10 87/42/9 96/5/10 
f 96/5/10 93/2/10 90/38/10 
f 128/43/12 106/15/11 101/10/12 
f 101/10/12 125/39/12 128/43/12 
f 126/40/9 129/44/12 114/23/10 
f 114/23/10 115/24/10 126/40/9 
f 130/45/9 103/12/12 108/17/10 
f 108/17/10 127/41/10 130/45/9 
f 87/42/9 84/46/12 98/7/12 
f 98/7/12 96/5/10 87/42/9 
f 131/47/11 111/20/11 106/15/11 
f 106/15/11 128/43/12 131/47/11 
f 129/44/12 132/48/12 112/21/11 
f 112/21/11 114/23/10 129/44/12 
f 133/49/12 95/4/12 103/12/12 
f 103/12/12 130/45/9 133/49/12 
f 84/46/12 78/30/10 100/9/10 
f 100/9/10 98/7/12 84/46/12 
f 121/34/11 116/25/10 111/20/11 
f 111/20/11 131/47/11 121/34/11 
f 132/48/12 123/36/11 113/22/11 
f 113/22/11 112/21/11 132/48/12 
f 117/28/12 92/1/9 95/4/12 
f 95/4/12 133/49/12 117/28/12 
s 8
f 134/1/13 135/2/14 136/3/15 
f 136/3/15 137/4/16 134/1/13 
f 135/2/14 138/5/14 139/6/15 
f 139/6/15 136/3/15 135/2/14 
f 138/5/14 140/7/16 141/8/15 
f 141/8/15 139/6/15 138/5/14 
f 140/7/16 142/9/14 143/10/16 
f 143/10/16 141/8/15 140/7/16 
f 137/4/16 136/3/15 144/11/15 
f 144/11/15 145/12/16 137/4/16 
f 136/3/15 139/6/15 146/13/15 
f 146/13/15 144/11/15 136/3/15 
f 139/6/15 141/8/15 147/14/15 
f 147/14/15 146/13/15 139/6/15 
f 141/8/15 143/10/16 148/15/15 
f 148/15/15 147/14/15 141/8/15 
f 145/12/16 144/11/15 149/16/15 
f 149/16/15 150/17/14 145/12/16 
f 144/11/15 146/13/15 151/18/15 
f 151/18/15 149/16/15 144/11/15 
f 146/13/15 147/14/15 152/19/15 
f 152/19/15 151/18/15 146/13/15 
f 147/14/15 148/15/15 153/20/15 
f 153/20/15 152/19/15 147/14/15 
f 150/17/14 149/16/15 154/21/14 
f 154/21/14 155/22/14 150/17/14 
f 149/16/15 151/18/15 156/23/15 
f 156/23/15 154/21/14 149/16/15 
f 151/18/15 152/19/15 157/24/15 
f 157/24/15 156/23/15 151/18/15 
f 152/19/15 153/20/15 158/25/15 
f 158/25/15 157/24/15 152/19/15 
f 124/26/13 123/27/14 134/1/13 
f 134/1/13 159/28/16 124/26/13 
f 160/29/14 142/9/14 120/30/14 
f 120/30/14 119/31/14 160/29/14 
f 31/32/15 30/33/15 158/25/15 
f 158/25/15 161/34/15 31/32/15 
f 162/35/16 155/22/14 27/36/16 
f 27/36/16 26/37/16 162/35/16 
f 123/27/14 132/38/14 135/2/14 
f 135/2/14 134/1/13 123/27/14 
f 163/39/16 143/10/16 142/9/14 
f 142/9/14 160/29/14 163/39/16 
f 30/33/15 46/40/15 157/24/15 
f 157/24/15 158/25/15 30/33/15 
f 164/41/14 150/17/14 155/22/14 
f 155/22/14 162/35/16 164/41/14 
f 132/38/14 129/42/13 138/5/14 
f 138/5/14 135/2/14 132/38/14 
f 165/43/16 148/15/15 143/10/16 
f 143/10/16 163/39/16 165/43/16 
f 46/40/15 42/44/14 156/23/15 
f 156/23/15 157/24/15 46/40/15 
f 166/45/13 145/12/16 150/17/14 
f 150/17/14 164/41/14 166/45/13 
f 129/42/13 126/46/16 140/7/16 
f 140/7/16 138/5/14 129/42/13 
f 167/47/15 153/20/15 148/15/15 
f 148/15/15 165/43/16 167/47/15 
f 42/44/14 38/48/14 154/21/14 
f 154/21/14 156/23/15 42/44/14 
f 168/49/16 137/4/16 145/12/16 
f 145/12/16 166/45/13 168/49/16 
f 126/46/16 120/30/14 142/9/14 
f 142/9/14 140/7/16 126/46/16 
f 161/34/15 158/25/15 153/20/15 
f 153/20/15 167/47/15 161/34/15 
f 38/48/14 27/36/16 155/22/14 
f 155/22/14 154/21/14 38/48/14 
f 159/28/16 134/1/13 137/4/16 
f 137/4/16 168/49/16 159/28/16 
s 16
f 169/25/17 170/24/17 171/19/17 
f 171/19/17 172/20/17 169/25/17 
f 170/24/17 173/23/17 174/18/17 
f 174/18/17 171/19/17 170/24/17 
f 173/23/17 175/21/17 176/16/17 
f 176/16/17 174/18/17 173/23/17 
f 175/21/17 177/22/17 178/17/17 
f 178/17/17 176/16/17 175/21/17 
f 172/20/17 171/19/17 179/14/17 
f 179/14/17 180/15/17 172/20/17 
f 171/19/17 174/18/17 181/13/17 
f 181/13/17 179/14/17 171/19/17 
f 174/18/17 176/16/17 182/11/17 
f 182/11/17 181/13/17 174/18/17 
f 176/16/17 178/17/17 183/12/17 
f 183/12/17 182/11/17 176/16/17 
f 180/15/17 179/14/17 184/8/17 
f 184/8/17 185/10/17 180/15/17 
f 179/14/17 181/13/17 186/6/17 
f 186/6/17 184/8/17 179/14/17 
f 181/13/17 182/11/17 187/3/17 
f 187/3/17 186/6/17 181/13/17 
f 182/11/17 183/12/17 188/4/17 
f 188/4/17 187/3/17 182/11/17 
f 185/10/17 184/8/17 189/7/17 
f 189/7/17 190/9/17 185/10/17 
f 184/8/17 186/6/17 191/5/17 
f 191/5/17 189/7/17 184/8/17 
f 186/6/17 187/3/17 192/2/17 
f 192/2/17 191/5/17 186/6/17 
f 187/3/17 188/4/17 193/1/17 
f 193/1/17 192/2/17 187/3/17 
f 31/32/17 161/33/17 169/25/17 
f 169/25/17 29/34/17 31/32/17 
f 121/35/17 177/22/17 160/36/17 
f 160/36/17 119/37/17 121/35/17 
f 77/26/17 79/27/17 193/1/17 
f 193/1/17 118/28/17 77/26/17 
f 34/29/17 190/9/17 76/30/17 
f 76/30/17 32/31/17 34/29/17 
f 161/33/17 167/40/17 170/24/17 
f 170/24/17 169/25/17 161/33/17 
f 131/41/17 178/17/17 177/22/17 
f 177/22/17 121/35/17 131/41/17 
f 79/27/17 89/38/17 192/2/17 
f 192/2/17 193/1/17 79/27/17 
f 47/39/17 185/10/17 190/9/17 
f 190/9/17 34/29/17 47/39/17 
f 167/40/17 165/44/17 173/23/17 
f 173/23/17 170/24/17 167/40/17 
f 128/45/17 183/12/17 178/17/17 
f 178/17/17 131/41/17 128/45/17 
f 89/38/17 86/42/17 191/5/17 
f 191/5/17 192/2/17 89/38/17 
f 43/43/17 180/15/17 185/10/17 
f 185/10/17 47/39/17 43/43/17 
f 165/44/17 163/48/17 175/21/17 
f 175/21/17 173/23/17 165/44/17 
f 125/49/17 188/4/17 183/12/17 
f 183/12/17 128/45/17 125/49/17 
f 86/42/17 83/46/17 189/7/17 
f 189/7/17 191/5/17 86/42/17 
f 39/47/17 172/20/17 180/15/17 
f 180/15/17 43/43/17 39/47/17 
f 163/48/17 160/36/17 177/22/17 
f 177/22/17 175/21/17 163/48/17 
f 118/28/17 193/1/17 188/4/17 
f 188/4/17 125/49/17 118/28/17 
f 83/46/17 76/30/17 190/9/17 
f 190/9/17 189/7/17 83/46/17 
f 29/34/17 169/25/17 172/20/17 
f 172/20/17 39/47/17 29/34/17 
# 360 faces

