# 3ds Max Wavefront OBJ Exporter v0.97b - (c)2007 guruware
# 创建的文件:18.04.2016 17:51:32

mtllib Subtainer.mtl

#
# object Box002
#

v  -4.3750 -6.4097 8.1250
v  -1.7357 6.4097 3.2234
v  -1.7357 6.4097 -3.2234
v  -4.3750 -6.4097 -8.1250
v  0.0000 -6.4097 -0.0000
v  4.3750 -6.4097 8.1250
v  4.3750 -6.4097 -8.1250
v  1.7357 6.4097 3.2234
v  1.7357 6.4097 -3.2234
# 9 vertices

vn -0.9795 0.2017 -0.0000
vn 0.0000 -1.0000 -0.0000
vn 0.0000 0.3571 0.9341
vn 0.9795 0.2017 -0.0000
vn 0.0000 0.3571 -0.9341
vn 0.0000 1.0000 -0.0000
# 6 vertex normals

vt 0.0000 0.0000 0.0000
vt 1.0000 0.0000 0.0000
vt 0.2308 0.0000 0.0000
vt 1.2308 0.0000 0.0000
vt 0.0000 1.0000 0.0000
vt 1.0000 1.0000 0.0000
vt 1.0000 0.0000 0.0000
vt 0.0000 0.0000 0.0000
vt 0.5000 0.5000 0.0000
vt 0.3016 0.6033 0.0000
vt 0.7899 0.6033 0.0000
vt 0.6984 0.6033 0.0000
vt 0.3932 0.6033 0.0000
vt 0.7899 0.6033 0.0000
vt 0.3016 0.6033 0.0000
vt 0.6984 0.6033 0.0000
vt 0.3932 0.6033 0.0000
vt 0.4067 0.3845 0.0000
vt 0.5149 0.3845 0.0000
vt 0.5149 0.6155 0.0000
vt 0.4067 0.6155 0.0000
# 21 texture coords

g Box002
usemtl wire_028089177
s 32
f 1/4/1 2/11/1 3/17/1 
f 3/17/1 4/3/1 1/4/1 
s 8
f 1/5/2 5/9/2 6/6/2 
f 6/6/2 5/9/2 7/7/2 
f 7/7/2 5/9/2 4/8/2 
f 4/8/2 5/9/2 1/5/2 
s 4
f 1/1/3 6/2/3 8/12/3 
f 8/12/3 2/10/3 1/1/3 
s 2
f 6/3/4 7/4/4 9/14/4 
f 9/14/4 8/13/4 6/3/4 
s 16
f 7/1/5 4/2/5 3/16/5 
f 3/16/5 9/15/5 7/1/5 
s 1
f 8/19/6 9/20/6 3/21/6 
f 3/21/6 2/18/6 8/19/6 
# 14 faces

