# 3ds Max Wavefront OBJ Exporter v0.97b - (c)2007 guruware
# 创建的文件:11.03.2016 16:50:37

mtllib door.mtl

#
# object Box001
#

v  -71.6667 0.0000 41.6667
v  -71.6667 0.0000 8.3333
v  -38.3333 0.0000 8.3333
v  -38.3333 0.0000 41.6667
v  -71.6667 0.0000 -25.0000
v  -38.3333 0.0000 -25.0000
v  -71.6667 0.0000 -58.3333
v  -38.3333 0.0000 -58.3333
v  -71.6667 0.0000 -91.6667
v  -38.3333 0.0000 -91.6667
v  -5.0000 0.0000 8.3333
v  -5.0000 0.0000 41.6667
v  -5.0000 0.0000 -25.0000
v  -5.0000 0.0000 -58.3333
v  -5.0000 0.0000 -91.6667
v  28.3333 0.0000 8.3333
v  28.3333 0.0000 41.6667
v  28.3333 0.0000 -25.0000
v  28.3333 0.0000 -58.3333
v  28.3333 0.0000 -91.6667
v  61.6667 0.0000 8.3333
v  61.6667 0.0000 41.6667
v  61.6667 0.0000 -25.0000
v  61.6667 0.0000 -58.3333
v  61.6667 0.0000 -91.6667
v  -105.0000 0.0000 75.0000
v  -105.0000 0.0000 41.6667
v  -71.6667 0.0000 75.0000
v  -71.6667 0.0000 -125.0000
v  -105.0000 0.0000 -91.6667
v  -105.0000 0.0000 -125.0000
v  95.0000 0.0000 -125.0000
v  95.0000 0.0000 -91.6667
v  61.6667 0.0000 -125.0000
v  61.6667 0.0000 75.0000
v  95.0000 0.0000 41.6667
v  95.0000 0.0000 75.0000
v  -105.0000 0.0000 8.3333
v  -38.3333 0.0000 -125.0000
v  95.0000 0.0000 -58.3333
v  28.3333 0.0000 75.0000
v  -105.0000 0.0000 -25.0000
v  -5.0000 0.0000 -125.0000
v  95.0000 0.0000 -25.0000
v  -5.0000 0.0000 75.0000
v  -105.0000 0.0000 -58.3333
v  28.3333 0.0000 -125.0000
v  95.0000 0.0000 8.3333
v  -38.3333 0.0000 75.0000
# 49 vertices

vn 0.0000 -1.0000 -0.0000
# 1 vertex normals

vt 0.8333 0.1667 0.0000
vt 0.8333 0.3333 0.0000
vt 0.6667 0.3333 0.0000
vt 0.6667 0.1667 0.0000
vt 0.8333 0.5000 0.0000
vt 0.6667 0.5000 0.0000
vt 0.8333 0.6667 0.0000
vt 0.6667 0.6667 0.0000
vt 0.8333 0.8333 0.0000
vt 0.6667 0.8333 0.0000
vt 0.5000 0.3333 0.0000
vt 0.5000 0.1667 0.0000
vt 0.5000 0.5000 0.0000
vt 0.5000 0.6667 0.0000
vt 0.5000 0.8333 0.0000
vt 0.3333 0.3333 0.0000
vt 0.3333 0.1667 0.0000
vt 0.3333 0.5000 0.0000
vt 0.3333 0.6667 0.0000
vt 0.3333 0.8333 0.0000
vt 0.1667 0.3333 0.0000
vt 0.1667 0.1667 0.0000
vt 0.1667 0.5000 0.0000
vt 0.1667 0.6667 0.0000
vt 0.1667 0.8333 0.0000
vt 1.0000 0.0000 0.0000
vt 1.0000 0.1667 0.0000
vt 0.8333 0.0000 0.0000
vt 0.8333 1.0000 0.0000
vt 1.0000 0.8333 0.0000
vt 1.0000 1.0000 0.0000
vt 0.0000 1.0000 0.0000
vt 0.0000 0.8333 0.0000
vt 0.1667 1.0000 0.0000
vt 0.1667 0.0000 0.0000
vt 0.0000 0.1667 0.0000
vt 0.0000 0.0000 0.0000
vt 1.0000 0.3333 0.0000
vt 0.6667 1.0000 0.0000
vt 0.0000 0.6667 0.0000
vt 0.3333 0.0000 0.0000
vt 1.0000 0.5000 0.0000
vt 0.5000 1.0000 0.0000
vt 0.0000 0.5000 0.0000
vt 0.5000 0.0000 0.0000
vt 1.0000 0.6667 0.0000
vt 0.3333 1.0000 0.0000
vt 0.0000 0.3333 0.0000
vt 0.6667 0.0000 0.0000
# 49 texture coords

g Box001
usemtl wire_177088027
s 16
f 1/1/1 2/2/1 3/3/1 
f 3/3/1 4/4/1 1/1/1 
f 2/2/1 5/5/1 6/6/1 
f 6/6/1 3/3/1 2/2/1 
f 5/5/1 7/7/1 8/8/1 
f 8/8/1 6/6/1 5/5/1 
f 7/7/1 9/9/1 10/10/1 
f 10/10/1 8/8/1 7/7/1 
f 4/4/1 3/3/1 11/11/1 
f 11/11/1 12/12/1 4/4/1 
f 3/3/1 6/6/1 13/13/1 
f 13/13/1 11/11/1 3/3/1 
f 6/6/1 8/8/1 14/14/1 
f 14/14/1 13/13/1 6/6/1 
f 8/8/1 10/10/1 15/15/1 
f 15/15/1 14/14/1 8/8/1 
f 12/12/1 11/11/1 16/16/1 
f 16/16/1 17/17/1 12/12/1 
f 11/11/1 13/13/1 18/18/1 
f 18/18/1 16/16/1 11/11/1 
f 13/13/1 14/14/1 19/19/1 
f 19/19/1 18/18/1 13/13/1 
f 14/14/1 15/15/1 20/20/1 
f 20/20/1 19/19/1 14/14/1 
f 17/17/1 16/16/1 21/21/1 
f 21/21/1 22/22/1 17/17/1 
f 16/16/1 18/18/1 23/23/1 
f 23/23/1 21/21/1 16/16/1 
f 18/18/1 19/19/1 24/24/1 
f 24/24/1 23/23/1 18/18/1 
f 19/19/1 20/20/1 25/25/1 
f 25/25/1 24/24/1 19/19/1 
f 26/26/1 27/27/1 1/1/1 
f 1/1/1 28/28/1 26/26/1 
f 29/29/1 9/9/1 30/30/1 
f 30/30/1 31/31/1 29/29/1 
f 32/32/1 33/33/1 25/25/1 
f 25/25/1 34/34/1 32/32/1 
f 35/35/1 22/22/1 36/36/1 
f 36/36/1 37/37/1 35/35/1 
f 27/27/1 38/38/1 2/2/1 
f 2/2/1 1/1/1 27/27/1 
f 39/39/1 10/10/1 9/9/1 
f 9/9/1 29/29/1 39/39/1 
f 33/33/1 40/40/1 24/24/1 
f 24/24/1 25/25/1 33/33/1 
f 41/41/1 17/17/1 22/22/1 
f 22/22/1 35/35/1 41/41/1 
f 38/38/1 42/42/1 5/5/1 
f 5/5/1 2/2/1 38/38/1 
f 43/43/1 15/15/1 10/10/1 
f 10/10/1 39/39/1 43/43/1 
f 40/40/1 44/44/1 23/23/1 
f 23/23/1 24/24/1 40/40/1 
f 45/45/1 12/12/1 17/17/1 
f 17/17/1 41/41/1 45/45/1 
f 42/42/1 46/46/1 7/7/1 
f 7/7/1 5/5/1 42/42/1 
f 47/47/1 20/20/1 15/15/1 
f 15/15/1 43/43/1 47/47/1 
f 44/44/1 48/48/1 21/21/1 
f 21/21/1 23/23/1 44/44/1 
f 49/49/1 4/4/1 12/12/1 
f 12/12/1 45/45/1 49/49/1 
f 46/46/1 30/30/1 9/9/1 
f 9/9/1 7/7/1 46/46/1 
f 34/34/1 25/25/1 20/20/1 
f 20/20/1 47/47/1 34/34/1 
f 48/48/1 36/36/1 22/22/1 
f 22/22/1 21/21/1 48/48/1 
f 28/28/1 1/1/1 4/4/1 
f 4/4/1 49/49/1 28/28/1 
# 72 faces

